<svg width="45" height="41" viewBox="0 0 45 41" fill="none" xmlns="http://www.w3.org/2000/svg">
<path d="M25 0C27.7344 0 30 2.26562 30 5V15.5469C24.2188 17.1875 20 22.5 20 28.75C20 33.4375 22.2656 37.5 25.7031 40C25.4688 40 25.2344 40 25 40H5C2.1875 40 0 37.8125 0 35V5C0 2.26562 2.1875 0 5 0H25ZM6.25 10C5.54688 10 5 10.625 5 11.25C5 11.9531 5.54688 12.5 6.25 12.5H23.75C24.375 12.5 25 11.9531 25 11.25C25 10.625 24.375 10 23.75 10H6.25ZM6.25 20H18.75C19.375 20 20 19.4531 20 18.75C20 18.125 19.375 17.5 18.75 17.5H6.25C5.54688 17.5 5 18.125 5 18.75C5 19.4531 5.54688 20 6.25 20ZM6.25 27.5H13.75C14.375 27.5 15 26.9531 15 26.25C15 25.625 14.375 25 13.75 25H6.25C5.54688 25 5 25.625 5 26.25C5 26.9531 5.54688 27.5 6.25 27.5Z" fill="#C2E0FF"/>
<path d="M22.5 28.75C22.5 22.5781 27.5 17.5 33.75 17.5C39.9219 17.5 45 22.5781 45 28.75C45 35 39.9219 40 33.75 40C27.5 40 22.5 35 22.5 28.75ZM38.9844 27.1875C39.4531 26.7188 39.4531 25.8594 38.9844 25.3906C38.5156 24.9219 37.6562 24.9219 37.1875 25.3906L32.5 30.1562L30.2344 27.8906C29.7656 27.4219 28.9062 27.4219 28.4375 27.8906C27.9688 28.3594 27.9688 29.2188 28.4375 29.6875L31.5625 32.8125C32.0312 33.2812 32.8906 33.2812 33.3594 32.8125L38.9844 27.1875Z" fill="#0F85FA"/>
</svg>
