<svg width="40" height="41" viewBox="0 0 40 41" fill="none" xmlns="http://www.w3.org/2000/svg">
<path d="M20 0C8.75 0 0.3125 9.375 0 20V23.125C0 24.2188 0.78125 25 1.79688 25C2.73438 25 3.75 24.2188 3.75 23.125V20C3.75 11.0938 11.0156 3.82812 20 3.82812C28.9062 3.82812 36.25 11.0938 36.25 20V31.25C36.25 33.0469 34.8438 34.375 33.125 34.375H24.4531C23.8281 33.2812 22.5781 32.5 21.25 32.5H18.8281C17.0312 32.5 15.3906 33.75 15 35.5469C14.6094 37.9688 16.4062 40 18.6719 40H21.25C22.5781 40 23.8281 39.2969 24.4531 38.125H33.125C36.875 38.125 40 35.0781 40 31.25V20C39.6094 9.375 31.1719 0 20 0Z" fill="#FFDA73"/>
<path d="M12.4219 15H11.25C8.4375 15 6.25 17.2656 6.25 20.0781V23.75C6.25 26.5625 8.4375 28.75 11.25 28.75H12.5C13.8281 28.75 15 27.6562 15 26.25L14.9219 17.5C14.9219 16.1719 13.8281 15 12.4219 15ZM28.75 15H27.5C26.0938 15 25 16.1719 25 17.5781V26.25C25 27.6562 26.0938 28.75 27.5 28.75H28.75C31.4844 28.75 33.75 26.5625 33.75 23.75V20.0781C33.75 17.2656 31.4844 15 28.75 15Z" fill="#DBA100"/>
</svg>
