<svg width="40" height="41" viewBox="0 0 40 41" fill="none" xmlns="http://www.w3.org/2000/svg">
<path d="M12.4219 28.0469C11.3281 27.4219 11.0938 25.7031 10.2344 24.7656C9.92188 24.5312 9.53125 24.2969 9.14062 24.0625L5.07812 33.9062C4.84375 34.5312 4.92188 35.2344 5.39062 35.7812C5.85938 36.3281 6.5625 36.5625 7.1875 36.4062L10.7031 35.7031L12.4219 38.9844C12.7344 39.6094 13.3594 40 14.0625 40C14.1406 40 14.1406 40 14.1406 40C14.9219 40 15.5469 39.5312 15.7812 38.9062L19.5312 29.9219C18.4375 29.6875 17.4219 28.6719 16.4062 28.3594C15.1562 28.0469 13.5156 28.6719 12.4219 28.0469ZM34.8438 33.9062L30.7812 24.0625C30.3906 24.2969 30 24.5312 29.6875 24.7656C28.8281 25.7031 28.5938 27.4219 27.5 28.0469C26.4062 28.6719 24.7656 28.0469 23.5156 28.3594C22.5 28.6719 21.4844 29.6875 20.4688 29.9219L24.1406 38.9062C24.375 39.5312 25 40 25.7812 40.0781C25.7812 40 25.7812 40 25.8594 40C26.5625 40 27.1875 39.6875 27.5 38.9844L29.2188 35.7031L32.7344 36.4062C33.3594 36.5625 34.0625 36.3281 34.5312 35.7812C35 35.2344 35.0781 34.5312 34.8438 33.9062Z" fill="#DEDFFF"/>
<path d="M34.9219 15C34.9219 13.75 33.5156 12.6562 33.2031 11.4844C32.8906 10.2344 33.5156 8.59375 32.8906 7.5C32.2656 6.40625 30.5469 6.17188 29.6875 5.3125C28.75 4.375 28.5156 2.65625 27.4219 2.03125C26.3281 1.40625 24.6875 2.03125 23.4375 1.71875C22.3438 1.40625 21.25 0 20 0C18.6719 0 17.5781 1.40625 16.4062 1.71875C15.1562 2.03125 13.5156 1.40625 12.4219 2.03125C11.4062 2.65625 11.0938 4.375 10.2344 5.3125C9.29688 6.17188 7.57812 6.40625 6.95312 7.5C6.32812 8.59375 6.95312 10.2344 6.64062 11.4844C6.32812 12.6562 5 13.75 5 15C5 16.3281 6.32812 17.4219 6.64062 18.5938C6.95312 19.8438 6.32812 21.4844 6.95312 22.5781C7.57812 23.5938 9.29688 23.9062 10.2344 24.7656C11.0938 25.7031 11.3281 27.4219 12.4219 28.0469C13.5156 28.6719 15.1562 28.0469 16.4062 28.3594C17.5781 28.6719 18.6719 30 20 30C21.25 30 22.3438 28.6719 23.5156 28.3594C24.7656 28.0469 26.4062 28.6719 27.5 28.0469C28.5938 27.4219 28.8281 25.7031 29.6875 24.7656C30.625 23.9062 32.3438 23.6719 32.9688 22.5781C33.5938 21.4844 32.9688 19.8438 33.2812 18.5938C33.5938 17.4219 34.9219 16.3281 34.9219 15ZM20 21.25C16.4844 21.25 13.75 18.5156 13.75 15C13.75 11.5625 16.4844 8.75 20 8.75C23.4375 8.75 26.25 11.5625 26.25 15C26.25 18.5156 23.4375 21.25 20 21.25Z" fill="#7478E6"/>
</svg>
